<?xml version="1.0" encoding="UTF-8"?>
<svg width="1200pt" height="1200pt" version="1.1" viewBox="0 0 1200 1200"
  xmlns="http://www.w3.org/2000/svg">
  <path d="m89.316 1187h185.86c17.531 0 31.801-14.293 31.801-31.801v-620.63c0-17.52-14.27-31.801-31.801-31.801l-185.86 0.003906c-17.508 0-31.789 14.281-31.789 31.801v620.63c0 17.504 14.281 31.797 31.789 31.797zm632.87-0.046875c95.762 1.5 141.73-42.035 239.55-189.54l151.27-228.07c83.867-126.45-23.617-271.92-167.61-270.77l-193.09 1.5352c32.676-127.25 76.656-297.27 90.637-349.34 0.74219-118.45-99.707-172.4-149.68-114.21 0 0-123.48 205.97-273.3 466.22v684.19c100.74-0.011719 201.47-0.011719 302.21-0.011719z" fillRule="evenodd"/>
</svg>
